<svg xmlns="http://www.w3.org/2000/svg" width="42" height="42" viewBox="0 0 42 42">
  <g id="グループ_17" data-name="グループ 17" transform="translate(-860 -1872)">
    <path id="パス_114" data-name="パス 114" d="M3.355.154c1.727,0,2.893-1.452,2.893-4.18S5.082-8.14,3.355-8.14.451-6.754.451-4.026,1.617.154,3.355.154Zm0-1.518C2.772-1.364,2.3-1.87,2.3-4.026s.473-2.6,1.056-2.6,1.045.44,1.045,2.6S3.938-1.364,3.355-1.364ZM7.986,0h5.676V-1.65H12.155a11.6,11.6,0,0,0-1.342.11c1.232-1.276,2.475-2.695,2.475-4.026A2.49,2.49,0,0,0,10.6-8.14,3.423,3.423,0,0,0,7.887-6.875L8.954-5.819a2.074,2.074,0,0,1,1.386-.792,1.01,1.01,0,0,1,1.067,1.155c0,1.122-1.441,2.486-3.421,4.334Z" transform="translate(874 1897)" fill="#1c1c1c"/>
    <g id="楕円形_7" data-name="楕円形 7" transform="translate(860 1872)" fill="none" stroke="#1c1c1c" stroke-width="3">
      <circle cx="21" cy="21" r="21" stroke="none"/>
      <circle cx="21" cy="21" r="19.5" fill="none"/>
    </g>
  </g>
</svg>
