<svg xmlns="http://www.w3.org/2000/svg" width="42" height="42" viewBox="0 0 42 42">
  <g id="グループ_18" data-name="グループ 18" transform="translate(-1093 -1872)">
    <path id="パス_115" data-name="パス 115" d="M3.355.154c1.727,0,2.893-1.452,2.893-4.18S5.082-8.14,3.355-8.14.451-6.754.451-4.026,1.617.154,3.355.154Zm0-1.518C2.772-1.364,2.3-1.87,2.3-4.026s.473-2.6,1.056-2.6,1.045.44,1.045,2.6S3.938-1.364,3.355-1.364ZM10.593.154c1.628,0,3.025-.836,3.025-2.332a1.981,1.981,0,0,0-1.573-1.936v-.055a1.861,1.861,0,0,0,1.309-1.76c0-1.408-1.111-2.211-2.805-2.211A3.915,3.915,0,0,0,8.008-7.117L9-5.918a2.145,2.145,0,0,1,1.463-.693c.6,0,.935.3.935.836,0,.594-.44,1.012-1.837,1.012v1.386c1.716,0,2.09.4,2.09,1.067,0,.572-.495.88-1.254.88a2.547,2.547,0,0,1-1.7-.792L7.788-.99A3.512,3.512,0,0,0,10.593.154Z" transform="translate(1107 1897)" fill="#1c1c1c"/>
    <g id="楕円形_8" data-name="楕円形 8" transform="translate(1093 1872)" fill="none" stroke="#1c1c1c" stroke-width="3">
      <circle cx="21" cy="21" r="21" stroke="none"/>
      <circle cx="21" cy="21" r="19.5" fill="none"/>
    </g>
  </g>
</svg>
