<svg xmlns="http://www.w3.org/2000/svg" width="30" height="33.718" viewBox="0 0 30 33.718">
  <g id="グループ_39" data-name="グループ 39" transform="translate(-1370 -14134.641)">
    <path id="パス_102" data-name="パス 102" d="M3.412-3.161H5.456V-11.68h2.9v-1.712H.54v1.712H3.412Zm11.612.193c2.706,0,4.57-2.03,4.57-5.344s-1.864-5.261-4.57-5.261-4.57,1.933-4.57,5.261S12.318-2.968,15.025-2.968Zm0-1.767c-1.519,0-2.485-1.395-2.485-3.576s.967-3.507,2.485-3.507,2.485,1.312,2.485,3.507S16.543-4.735,15.025-4.735Zm7.953,1.574h2.044V-6.792h1.367c2.2,0,3.949-1.049,3.949-3.383,0-2.416-1.74-3.217-4-3.217H22.978Zm2.044-5.247v-3.355h1.16c1.408,0,2.154.4,2.154,1.588s-.677,1.767-2.085,1.767Z" transform="translate(1369.46 14171.326)" fill="#1c1c1c"/>
    <path id="パス_101" data-name="パス 101" d="M14.871,0,.2,12.707H29.544Z" transform="translate(1369.869 14134.641)" fill="#1c1c1c"/>
    <rect id="長方形_63" data-name="長方形 63" width="30" height="5" transform="translate(1370 14149.641)" fill="#1c1c1c"/>
  </g>
</svg>
