<svg xmlns="http://www.w3.org/2000/svg" width="644" height="241" viewBox="0 0 644 241">
  <g id="グループ_71" data-name="グループ 71" transform="translate(5137 -3377)">
    <g id="グループ_69" data-name="グループ 69">
      <rect id="長方形_78" data-name="長方形 78" width="644" height="241" transform="translate(-5137 3377)" fill="#fff"/>
      <g id="長方形_101" data-name="長方形 101" transform="translate(-5137 3377)" fill="none" stroke="#1c1c1c" stroke-width="5">
        <rect width="644" height="241" stroke="none"/>
        <rect x="2.5" y="2.5" width="639" height="236" fill="none"/>
      </g>
      <path id="パス_149" data-name="パス 149" d="M23.94-28.035H18.97c.14.91.245,2.03.35,3.535q.052,1.155.105,2.52H7.84a33.5,33.5,0,0,1-3.885-.245v4.655c1.225-.07,2.73-.14,3.99-.14H17.5C14.7-13.72,8.925-8.785,2.1-5.565l3.22,3.64A48.129,48.129,0,0,0,19.6-13.755c.07,3.605.07,7.105.07,9.45,0,1.015-.35,1.47-1.225,1.47a29.728,29.728,0,0,1-4.655-.42l.385,4.55c1.995.14,3.955.21,6.09.21,2.66,0,3.955-1.295,3.92-3.535-.07-4.725-.21-10.57-.315-15.68h4.515c.945,0,2.275.07,3.395.1V-22.26a27.057,27.057,0,0,1-3.64.28H23.765c0-.91-.035-1.75-.035-2.52A29.937,29.937,0,0,1,23.94-28.035ZM45.71-26.6l-3.29,3.5a72.773,72.773,0,0,1,8.75,7.56l3.57-3.64A70.689,70.689,0,0,0,45.71-26.6ZM41.335-3.29l2.94,4.62A37.9,37.9,0,0,0,57.26-3.605a37.217,37.217,0,0,0,12.95-12.95L67.48-21.49A32.956,32.956,0,0,1,54.74-7.875,36.074,36.074,0,0,1,41.335-3.29Zm41.02-23.555v4.515c1.015-.07,2.52-.1,3.64-.1H99.4c1.26,0,2.9.035,3.85.1v-4.515a33,33,0,0,1-3.78.175H86A29.5,29.5,0,0,1,82.355-26.845Zm23.835,10.15-3.115-1.925a7.383,7.383,0,0,1-2.555.35H83.195c-1.085,0-2.59-.1-4.06-.21v4.55c1.47-.14,3.22-.175,4.06-.175H100.1A15.185,15.185,0,0,1,96.5-8.05a23.608,23.608,0,0,1-12.11,6.125L87.85,2.03a26.209,26.209,0,0,0,12.495-7.56,25.153,25.153,0,0,0,5.18-9.7A12.968,12.968,0,0,1,106.19-16.695Zm7.8,3.08L116.2-9.2a70.131,70.131,0,0,0,12.355-5.04v11.2a39.2,39.2,0,0,1-.245,4.585h5.53a24.063,24.063,0,0,1-.315-4.585v-14.14a64.2,64.2,0,0,0,9.415-7.6l-3.78-3.6a44.871,44.871,0,0,1-9.87,8.5A56.28,56.28,0,0,1,113.995-13.615ZM157.535-26.6l-3.29,3.5A72.774,72.774,0,0,1,163-15.54l3.57-3.64A70.689,70.689,0,0,0,157.535-26.6ZM153.16-3.29l2.94,4.62a37.9,37.9,0,0,0,12.985-4.935,37.217,37.217,0,0,0,12.95-12.95l-2.73-4.935a32.956,32.956,0,0,1-12.74,13.615A36.074,36.074,0,0,1,153.16-3.29Zm44.275-15.855a31.807,31.807,0,0,0,6.4-6.475,34.063,34.063,0,0,0,6.72,6.475ZM195.72-15.33h16.345V-18.1a42.294,42.294,0,0,0,5.88,3.4,21.572,21.572,0,0,1,2.695-3.815,32.016,32.016,0,0,1-14.805-11.1h-4.34a34.755,34.755,0,0,1-14.14,11.725,16.259,16.259,0,0,1,2.45,3.5,40.411,40.411,0,0,0,5.915-3.5Zm-6.2,6.755h8.12a67.215,67.215,0,0,1-2.66,6.335l-5.285.175L190.26,2c5.95-.28,14.6-.63,22.82-1.085a18.554,18.554,0,0,1,1.4,2.17L218.365.735a47.072,47.072,0,0,0-8.015-9l-3.675,1.925a41.715,41.715,0,0,1,3.43,3.57c-3.57.14-7.175.28-10.535.385,1.05-1.96,2.2-4.13,3.22-6.195h15.68v-3.85H189.525Zm61.74-15.645h-9.03V-25.9h9.03Zm0,4.41h-9.03v-1.68h9.03Zm3.85-8.96H238.56v11.83h16.555Zm2.38,16.66v-3.5H235.48v3.5h3.955a17.049,17.049,0,0,1-3.22,3.71l-.735-2.975-2.8,1.225v-8.26h3.29v-3.92h-3.29v-6.895h-3.85v6.895h-3.5v3.92h3.5v9.87c-1.645.665-3.115,1.26-4.3,1.715l1.54,4.2c2.135-1.05,4.655-2.31,7.175-3.57a14.417,14.417,0,0,1,2.73,2.45,21.749,21.749,0,0,0,4.1-3.43h2.065A21.113,21.113,0,0,1,234.99-.84a12.3,12.3,0,0,1,2.73,2.45,26.706,26.706,0,0,0,8.19-8.785h2.065a19.249,19.249,0,0,1-6.51,8.05,11.466,11.466,0,0,1,2.94,2.31c2.835-2.2,5.565-6.44,7-10.36h1.365c-.385,4.235-.8,6.02-1.295,6.545a1.2,1.2,0,0,1-1.05.385c-.455,0-1.365,0-2.485-.1a8.3,8.3,0,0,1,.945,3.255,22,22,0,0,0,3.535-.07,3.263,3.263,0,0,0,2.31-1.19c.945-1.015,1.5-3.815,2-10.64.035-.49.07-1.435.07-1.435h-14.21c.35-.56.7-1.12.98-1.68Zm18.27-11.865a21.026,21.026,0,0,1,1.33,4.34H270.41l1.82-.525a19.878,19.878,0,0,0-1.96-3.99c2.975-.14,6.02-.35,8.96-.63Zm-8.68,7.945H289.66v3.99h4.06v-7.6h-4.97c.8-1.3,1.715-2.73,2.52-4.2l-4.445-1.05a39.7,39.7,0,0,1-2.275,5.25h-6.09l2.59-.63a18.337,18.337,0,0,0-1.575-4.515c4.655-.42,9.17-.98,12.95-1.68l-2.8-3.36c-6.37,1.225-16.9,2.065-26.11,2.38a13.171,13.171,0,0,1,.945,3.535c1.68-.035,3.465-.1,5.215-.21l-3.115.875a21.818,21.818,0,0,1,1.645,3.6H263.2v7.6h3.885ZM283.22-9.52a17.329,17.329,0,0,1-4.76,4.06,20.367,20.367,0,0,1-5.32-4.06Zm3.465-3.99-.77.175H268.24V-9.52h1.645l-1.155.49a23.549,23.549,0,0,0,5.53,5.495A48.875,48.875,0,0,1,262.36-.98a14.331,14.331,0,0,1,2.45,3.675A45.877,45.877,0,0,0,278.425-1.05a42.223,42.223,0,0,0,13.37,3.675A20.123,20.123,0,0,1,294.35-1.26a47.713,47.713,0,0,1-11.585-2.38,20.563,20.563,0,0,0,6.72-8.155Zm29.3,4.025v-3.29h3.465v2.1c0,.385,0,.805-.035,1.19Zm10.92-3.29v3.29h-3.745c.035-.35.035-.735.035-1.085v-2.205Zm-9.66-8.855a22.365,22.365,0,0,0,4.06-4.41,23.692,23.692,0,0,0,4.235,4.41Zm13.4,15.33v-9.66H323.19V-18.2h4.62v-1.715a28.221,28.221,0,0,0,2.765,1.61,23.6,23.6,0,0,1,2.135-3.64,22.146,22.146,0,0,1-9.625-7.665h-3.78a21.689,21.689,0,0,1-8.12,7.385v-.245H308v-7.175h-3.85v7.175h-4.27v3.85H303.9c-.91,4.165-2.8,9-4.83,11.76a20.556,20.556,0,0,1,1.89,3.71,28,28,0,0,0,3.185-6.72V3.01H308V-11.865c.735,1.47,1.435,2.975,1.82,3.99l2.1-3.22c-.525-.875-2.975-4.62-3.92-5.845v-1.68h3.185V-20.3a15.639,15.639,0,0,1,1.015,2.03,22.183,22.183,0,0,0,2.87-1.715V-18.2h4.375v2.24h-7.07V-6.3h6.4c-.98,2.485-3.325,4.76-8.68,6.44a15.942,15.942,0,0,1,2.205,3.08c5.145-1.645,7.945-4.13,9.415-6.93a14.81,14.81,0,0,0,8.365,6.895,9.9,9.9,0,0,1,2.38-3.465c-3.36-1.05-5.985-2.38-8.015-6.02Zm37.275-6.02c0-7.63-5.46-13.65-14.14-13.65-9.065,0-16.065,6.895-16.065,14.98,0,5.915,3.22,10.185,7.105,10.185,3.815,0,6.825-4.34,8.925-11.41a70.778,70.778,0,0,0,2.1-9.485c4.725.805,7.35,4.41,7.35,9.24,0,5.11-3.5,8.33-7.98,9.38a26.918,26.918,0,0,1-3.255.56l2.625,4.165C363.4.28,367.92-4.935,367.92-12.32Zm-25.725.875a11.017,11.017,0,0,1,8.89-10.15,52.538,52.538,0,0,1-1.855,8.47C347.8-8.4,346.43-6.2,344.96-6.2,343.6-6.2,342.2-7.91,342.2-11.445Zm40.355,1.19-4.62-.42a25.575,25.575,0,0,0-.665,5.04c0,4.83,4.025,7.525,12.04,7.525A53.671,53.671,0,0,0,401.45.665l-.035-4.9A49.856,49.856,0,0,1,389.13-2.87c-5.04,0-7.175-1.575-7.175-3.85A13.118,13.118,0,0,1,382.55-10.255ZM400.19-28.7l-2.765,1.12A25.82,25.82,0,0,1,398.93-25.1c-2.7.245-6.475.455-9.8.455a82.116,82.116,0,0,1-9.52-.455v4.655c2.835.21,5.88.385,9.555.385,3.325,0,7.665-.245,10.115-.42V-24.4c.315.595.63,1.19.875,1.715l2.835-1.225A51.673,51.673,0,0,0,400.19-28.7Zm4.165-1.575-2.8,1.12a37.108,37.108,0,0,1,2.835,4.83l2.8-1.19A49.973,49.973,0,0,0,404.355-30.275Zm19.6,12.25h8.19a7.321,7.321,0,0,1-2.625,2.66c-2.24-.56-4.48-1.05-6.51-1.435ZM443.415-4.83V-8.26h-13.93v-2.38H426.23a22.476,22.476,0,0,0,3.92-1.26,76.9,76.9,0,0,1,8.68,2.94l2.485-2.94c-1.96-.735-4.55-1.54-7.385-2.345a10.4,10.4,0,0,0,2.7-3.78h6.16V-21.28H426.44c.42-.56.8-1.12,1.19-1.645l-3.185-.945h14.07v1.925h4.025V-27.3H429.59v-2.31h-4.165v2.31H412.58v5.355h3.85V-23.87H423.6c-.56.805-1.225,1.68-1.89,2.59h-9.38v3.255h6.895c-.98,1.19-1.89,2.31-2.73,3.22l3.955,1.085.455-.525c1.05.21,2.17.49,3.29.735a69.467,69.467,0,0,1-10.955,1.225,10.513,10.513,0,0,1,1.365,3.22,76.476,76.476,0,0,0,10.745-1.365v2.17H411.74v3.43h10.675a33.665,33.665,0,0,1-11.55,4.165,15.789,15.789,0,0,1,2.555,3.36,30.982,30.982,0,0,0,11.935-5.7V3.01h4.13V-3.22A31.974,31.974,0,0,0,441.7,2.66a18.344,18.344,0,0,1,2.66-3.535A34.879,34.879,0,0,1,432.67-4.83ZM475.09-19.775V-7.14a91.363,91.363,0,0,0-8.645-8.68,26.527,26.527,0,0,0,.49-3.955Zm-20.44,0h7.98c-.175,4.3-1.365,9.485-7.98,12.915Zm24.57-4.06H466.97v-5.81h-4.305v5.81h-12.18V3.115h4.165v-9.87a16.937,16.937,0,0,1,2.9,3.08,18.167,18.167,0,0,0,7.525-8.05,73.2,73.2,0,0,1,6.58,7.315l3.43-2.66v5.25c0,.63-.21.805-.875.84-.665,0-3.01.035-5.075-.07A13.65,13.65,0,0,1,470.5,3.08c3.115,0,5.355-.07,6.79-.735,1.47-.665,1.925-1.82,1.925-4.06Z" transform="translate(-5056 3485.479)" fill="#1c1c1c"/>
      <path id="パス_148" data-name="パス 148" d="M5.3.238c2.907,0,4.624-1.751,4.624-3.808A3.475,3.475,0,0,0,7.395-6.987l-1.649-.7c-1.071-.425-1.955-.748-1.955-1.649,0-.833.7-1.326,1.8-1.326A4.013,4.013,0,0,1,8.262-9.622L9.537-11.2a5.583,5.583,0,0,0-3.944-1.615c-2.55,0-4.352,1.581-4.352,3.638A3.644,3.644,0,0,0,3.791-5.8l1.683.714c1.122.476,1.887.765,1.887,1.7,0,.884-.7,1.445-2.006,1.445a4.949,4.949,0,0,1-3.2-1.394L.714-1.6A6.7,6.7,0,0,0,5.3.238ZM13.43,0h2.516V-4.471h1.683c2.7,0,4.862-1.292,4.862-4.165,0-2.975-2.142-3.961-4.93-3.961H13.43Zm2.516-6.46v-4.131h1.428c1.734,0,2.652.493,2.652,1.955,0,1.445-.833,2.176-2.567,2.176ZM26.044,0H28.56V-12.6H26.044ZM39.8.221c2.5,0,4.607-1.36,4.607-3.57a3.155,3.155,0,0,0-2.5-3.179V-6.6a2.92,2.92,0,0,0,2.176-2.941c0-1.972-1.7-3.3-4.4-3.3a6.781,6.781,0,0,0-4.658,1.989l1.309,1.53a4.5,4.5,0,0,1,3.264-1.53c1.411,0,2.142.663,2.142,1.564,0,1.071-1.054,1.938-3.706,1.938v1.785c3.043,0,4,.782,4,2.006,0,1.054-.986,1.734-2.38,1.734a5.066,5.066,0,0,1-3.655-1.717L34.765-1.972A6.391,6.391,0,0,0,39.8.221Zm13.277-13.26v2.193c.527-.034,1.241-.068,1.836-.068h6.817c.6,0,1.258.034,1.836.068v-2.193a13.318,13.318,0,0,1-1.836.119H54.893A13.075,13.075,0,0,1,53.074-13.039ZM51.1-8.687V-6.46c.476-.034,1.122-.068,1.632-.068h4.675a7.306,7.306,0,0,1-1.054,3.757A7.062,7.062,0,0,1,53.278-.34l1.989,1.445a8.157,8.157,0,0,0,3.417-3.264,10.785,10.785,0,0,0,1.088-4.369h4.1c.476,0,1.122.017,1.547.051v-2.21a12.857,12.857,0,0,1-1.547.1H52.734C52.207-8.585,51.612-8.636,51.1-8.687ZM82.11-11.526l-1.394-1.037a6.093,6.093,0,0,1-1.751.221h-6a18.993,18.993,0,0,1-2.006-.119v2.414c.357-.017,1.292-.119,2.006-.119h5.763A13.172,13.172,0,0,1,76.194-6a19.057,19.057,0,0,1-6.97,4.879L70.975.714a22.393,22.393,0,0,0,6.392-4.777A38.767,38.767,0,0,1,81.651.748L83.589-.935A47.791,47.791,0,0,0,78.846-5.8a24.994,24.994,0,0,0,2.669-4.675A8.032,8.032,0,0,1,82.11-11.526Zm9.435,9.894a18.672,18.672,0,0,1-.17,2.38h2.652c-.068-.7-.153-1.887-.153-2.38V-6.443a49.1,49.1,0,0,1,6.137,2.533l.969-2.346a55.523,55.523,0,0,0-7.106-2.635v-2.516a18.483,18.483,0,0,1,.153-2.04H91.375a11.8,11.8,0,0,1,.17,2.04Zm17.731-.629c0,2.006.561,2.941,4.437,2.941a39.96,39.96,0,0,0,5.27-.374l.068-2.312a27.772,27.772,0,0,1-5.355.578c-1.87,0-2.176-.374-2.176-1.428V-7.361c2.414-.493,4.709-.935,5.236-1.054a14.476,14.476,0,0,1-2.72,3.451l1.87,1.1a24.364,24.364,0,0,0,3.519-4.947c.153-.306.408-.7.561-.935L118.354-11a4.793,4.793,0,0,1-1.207.391c-.765.187-3.145.663-5.627,1.139v-2.006a17.867,17.867,0,0,1,.153-1.955H109.14a14.7,14.7,0,0,1,.136,1.955v2.431c-1.683.306-3.179.561-3.978.663l.408,2.227c.714-.17,2.057-.442,3.57-.748ZM126.854-12.92l-1.6,1.7a35.347,35.347,0,0,1,4.25,3.672l1.734-1.768A34.334,34.334,0,0,0,126.854-12.92ZM124.729-1.6,126.157.646a18.41,18.41,0,0,0,6.307-2.4,18.077,18.077,0,0,0,6.29-6.29l-1.326-2.4a16.007,16.007,0,0,1-6.188,6.613A17.521,17.521,0,0,1,124.729-1.6Zm25.976-11.866-2.465-.765a7.036,7.036,0,0,1-.782,1.768A15.785,15.785,0,0,1,142.052-6.8l1.836,1.411a20.446,20.446,0,0,0,4.488-4.4h4.862a12.066,12.066,0,0,1-1.87,3.757c-1.071-.714-2.142-1.411-3.043-1.921l-1.513,1.547c.867.544,1.989,1.309,3.094,2.125A14.442,14.442,0,0,1,143.667-.6l1.972,1.717a16,16,0,0,0,6.086-4.029c.7.561,1.326,1.088,1.785,1.513l1.615-1.921c-.493-.408-1.156-.9-1.887-1.428a19.467,19.467,0,0,0,2.516-4.9,8,8,0,0,1,.561-1.207l-1.734-1.071a5.4,5.4,0,0,1-1.479.187h-3.451A18.312,18.312,0,0,1,150.705-13.464Zm10.166,5.593V-5.2c.629-.051,1.768-.085,2.737-.085h9.129c.714,0,1.581.068,1.989.085V-7.871c-.442.034-1.19.1-1.989.1h-9.129C162.724-7.769,161.483-7.82,160.871-7.871Zm32.47,1.887a6.474,6.474,0,0,0-6.868-6.63,7.553,7.553,0,0,0-7.8,7.276c0,2.873,1.564,4.947,3.451,4.947,1.853,0,3.315-2.108,4.335-5.542a34.377,34.377,0,0,0,1.02-4.607,4.2,4.2,0,0,1,3.57,4.488A4.613,4.613,0,0,1,187.17-1.5a13.075,13.075,0,0,1-1.581.272L186.864.8C191.148.136,193.341-2.4,193.341-5.984Zm-12.495.425a5.351,5.351,0,0,1,4.318-4.93,25.516,25.516,0,0,1-.9,4.114c-.7,2.3-1.36,3.366-2.074,3.366C181.526-3.009,180.846-3.842,180.846-5.559Zm26.639-8.058h-2.414c.068.442.119.986.17,1.717q.025.561.051,1.224h-5.627a16.273,16.273,0,0,1-1.887-.119v2.261c.6-.034,1.326-.068,1.938-.068h4.641a20.185,20.185,0,0,1-7.48,5.9l1.564,1.768a23.377,23.377,0,0,0,6.936-5.746c.034,1.751.034,3.451.034,4.59,0,.493-.17.714-.6.714a14.439,14.439,0,0,1-2.261-.2l.187,2.21c.969.068,1.921.1,2.958.1,1.292,0,1.921-.629,1.9-1.717-.034-2.3-.1-5.134-.153-7.616h2.193c.459,0,1.1.034,1.649.051v-2.261a13.142,13.142,0,0,1-1.768.136H207.4c0-.442-.017-.85-.017-1.224A14.539,14.539,0,0,1,207.485-13.617Zm10.744.7-1.6,1.7a35.345,35.345,0,0,1,4.25,3.672l1.734-1.768A34.335,34.335,0,0,0,218.229-12.92ZM216.1-1.6,217.532.646a18.41,18.41,0,0,0,6.307-2.4,18.077,18.077,0,0,0,6.29-6.29l-1.326-2.4a16.007,16.007,0,0,1-6.188,6.613A17.522,17.522,0,0,1,216.1-1.6ZM236.2-13.039v2.193c.493-.034,1.224-.051,1.768-.051h6.511c.612,0,1.411.017,1.87.051v-2.193a16.028,16.028,0,0,1-1.836.085h-6.545A14.33,14.33,0,0,1,236.2-13.039Zm11.577,4.93-1.513-.935a3.586,3.586,0,0,1-1.241.17h-8.415c-.527,0-1.258-.051-1.972-.1v2.21c.714-.068,1.564-.085,1.972-.085h8.211a7.375,7.375,0,0,1-1.751,2.941,11.467,11.467,0,0,1-5.882,2.975L238.867.986a12.73,12.73,0,0,0,6.069-3.672,12.217,12.217,0,0,0,2.516-4.709A6.3,6.3,0,0,1,247.775-8.109Zm3.961,1.5,1.071,2.142a34.064,34.064,0,0,0,6-2.448v5.44a19.033,19.033,0,0,1-.119,2.227h2.686a11.689,11.689,0,0,1-.153-2.227V-8.347a31.182,31.182,0,0,0,4.573-3.689l-1.836-1.751a21.8,21.8,0,0,1-4.794,4.131A27.336,27.336,0,0,1,251.736-6.613Zm21.318-6.307-1.6,1.7a35.347,35.347,0,0,1,4.25,3.672l1.734-1.768A34.336,34.336,0,0,0,273.054-12.92ZM270.929-1.6,272.357.646a18.411,18.411,0,0,0,6.307-2.4,18.077,18.077,0,0,0,6.29-6.29l-1.326-2.4a16.007,16.007,0,0,1-6.188,6.613A17.522,17.522,0,0,1,270.929-1.6ZM292.6-9.3a15.449,15.449,0,0,0,3.111-3.145A16.545,16.545,0,0,0,298.979-9.3Zm-.833,1.853h7.939V-8.789a20.541,20.541,0,0,0,2.856,1.649,10.478,10.478,0,0,1,1.309-1.853,15.551,15.551,0,0,1-7.191-5.389h-2.108a16.881,16.881,0,0,1-6.868,5.7,7.9,7.9,0,0,1,1.19,1.7,19.628,19.628,0,0,0,2.873-1.7Zm-3.009,3.281h3.944a32.649,32.649,0,0,1-1.292,3.077L288.847-1l.272,1.972c2.89-.136,7.089-.306,11.084-.527a9.013,9.013,0,0,1,.68,1.054L302.77.357a22.863,22.863,0,0,0-3.893-4.369l-1.785.935a20.263,20.263,0,0,1,1.666,1.734c-1.734.068-3.485.136-5.117.187.51-.952,1.071-2.006,1.564-3.009h7.616v-1.87H288.762Zm30.158-7.6h-4.386v-.816h4.386Zm0,2.142h-4.386v-.816h4.386Zm1.87-4.352h-8.041v5.746h8.041Zm1.156,8.092v-1.7H311.253v1.7h1.921a8.28,8.28,0,0,1-1.564,1.8l-.357-1.445-1.36.595V-8.942h1.6v-1.9h-1.6v-3.349h-1.87v3.349h-1.7v1.9h1.7v4.794c-.8.323-1.513.612-2.091.833l.748,2.04c1.037-.51,2.261-1.122,3.485-1.734a7,7,0,0,1,1.326,1.19,10.564,10.564,0,0,0,1.989-1.666h1a10.255,10.255,0,0,1-3.468,3.077,5.973,5.973,0,0,1,1.326,1.19,12.972,12.972,0,0,0,3.978-4.267h1A9.349,9.349,0,0,1,314.16.425a5.569,5.569,0,0,1,1.428,1.122,12.114,12.114,0,0,0,3.4-5.032h.663c-.187,2.057-.391,2.924-.629,3.179a.582.582,0,0,1-.51.187c-.221,0-.663,0-1.207-.051a4.032,4.032,0,0,1,.459,1.581,10.685,10.685,0,0,0,1.717-.034A1.585,1.585,0,0,0,320.6.8c.459-.493.731-1.853.969-5.168.017-.238.034-.7.034-.7h-6.9c.17-.272.34-.544.476-.816Zm9.044-5.763a10.211,10.211,0,0,1,.646,2.108h-3.247l.884-.255a9.654,9.654,0,0,0-.952-1.938c1.445-.068,2.924-.17,4.352-.306Zm-4.216,3.859h10.965v1.938h1.972V-9.537H337.3c.391-.629.833-1.326,1.224-2.04l-2.159-.51a19.281,19.281,0,0,1-1.1,2.55H332.3l1.258-.306a8.907,8.907,0,0,0-.765-2.193c2.261-.2,4.454-.476,6.29-.816l-1.36-1.632a95.165,95.165,0,0,1-12.682,1.156,6.4,6.4,0,0,1,.459,1.717c.816-.017,1.683-.051,2.533-.1l-1.513.425a10.6,10.6,0,0,1,.8,1.751h-2.431v3.689h1.887Zm7.837,3.162A8.417,8.417,0,0,1,332.3-2.652a9.892,9.892,0,0,1-2.584-1.972Zm1.683-1.938-.374.085h-8.585v1.853h.8l-.561.238a11.438,11.438,0,0,0,2.686,2.669,23.739,23.739,0,0,1-5.78,1.241,6.96,6.96,0,0,1,1.19,1.785A22.283,22.283,0,0,0,332.282-.51a20.508,20.508,0,0,0,6.494,1.785,9.774,9.774,0,0,1,1.241-1.887,23.175,23.175,0,0,1-5.627-1.156,9.988,9.988,0,0,0,3.264-3.961Zm14.4,1.955V-6.2h1.683v1.02c0,.187,0,.391-.017.578ZM356-6.2v1.6h-1.819c.017-.17.017-.357.017-.527V-6.2Zm-4.692-4.3a10.863,10.863,0,0,0,1.972-2.142,11.508,11.508,0,0,0,2.057,2.142Zm6.511,7.446V-7.752H354.2V-8.84h2.244v-.833a13.707,13.707,0,0,0,1.343.782,11.466,11.466,0,0,1,1.037-1.768,10.757,10.757,0,0,1-4.675-3.723h-1.836a10.535,10.535,0,0,1-3.944,3.587v-.119h-1.547V-14.4h-1.87v3.485h-2.074v1.87h1.955a16.789,16.789,0,0,1-2.346,5.712,9.983,9.983,0,0,1,.918,1.8,13.6,13.6,0,0,0,1.547-3.264V1.462h1.87V-5.763c.357.714.7,1.445.884,1.938l1.02-1.564c-.255-.425-1.445-2.244-1.9-2.839v-.816h1.547V-9.86a7.6,7.6,0,0,1,.493.986,10.775,10.775,0,0,0,1.394-.833v.867h2.125v1.088h-3.434V-3.06h3.111c-.476,1.207-1.615,2.312-4.216,3.128a7.744,7.744,0,0,1,1.071,1.5A7.261,7.261,0,0,0,353.481-1.8a7.193,7.193,0,0,0,4.063,3.349A4.807,4.807,0,0,1,358.7-.136a5.923,5.923,0,0,1-3.893-2.924Zm10.132-8.823v2.176a45.627,45.627,0,0,0,7.31,0V-11.9A34.957,34.957,0,0,1,367.948-11.883Zm1.36,7.259-1.955-.187a10.387,10.387,0,0,0-.289,2.21c0,1.751,1.411,2.788,4.335,2.788a24.075,24.075,0,0,0,4.386-.323l-.034-2.3a20.1,20.1,0,0,1-4.267.442c-1.734,0-2.38-.459-2.38-1.207A5.769,5.769,0,0,1,369.308-4.624Zm-3.978-8.4-2.38-.2c-.017.544-.119,1.19-.17,1.666a47.4,47.4,0,0,0-.714,6.732,21.732,21.732,0,0,0,.663,5.559L364.7.6c-.017-.238-.034-.51-.034-.7a5.127,5.127,0,0,1,.085-.8c.187-.9.748-2.754,1.224-4.165L364.922-5.9c-.238.561-.51,1.156-.765,1.734a8.2,8.2,0,0,1-.068-1.105,45.088,45.088,0,0,1,.816-6.239C364.973-11.815,365.194-12.665,365.33-13.022Zm14.2,3.706.969,2.38c1.768-.765,5.8-2.465,8.3-2.465,2.04,0,3.145,1.224,3.145,2.822,0,2.958-3.6,4.284-8.211,4.4L384.71.085c5.984-.306,9.656-2.771,9.656-6.63,0-3.145-2.414-4.913-5.491-4.913-2.482,0-5.95,1.224-7.259,1.632C381-9.656,380.154-9.418,379.525-9.316ZM401.3-12.155l-2.618-.034a10.334,10.334,0,0,1,.136,1.734c0,1.037.017,3.026.187,4.59.476,4.556,2.091,6.239,3.961,6.239,1.36,0,2.431-1.037,3.553-4l-1.7-2.074c-.323,1.36-1,3.349-1.8,3.349-1.071,0-1.581-1.683-1.819-4.131-.1-1.224-.119-2.5-.1-3.6A13.751,13.751,0,0,1,401.3-12.155Zm8.5.391-2.159.7c1.853,2.108,2.754,6.239,3.026,8.976l2.227-.867C412.709-5.559,411.417-9.809,409.8-11.764Zm6.052.068.221,2.329c1.972-.425,5.44-.8,7.038-.969A6.846,6.846,0,0,0,420.6-5.083c0,3.672,3.366,5.593,6.919,5.831l.8-2.329c-2.873-.153-5.491-1.173-5.491-3.961a5.171,5.171,0,0,1,3.587-4.777,19.237,19.237,0,0,1,3.281-.221l-.017-2.176c-1.19.034-3.06.153-4.811.289-3.111.272-5.916.527-7.327.646C417.2-11.747,416.534-11.713,415.854-11.7ZM8.738,13.032v1.377H7.582V13.032ZM7.582,17.384V15.939H8.738v1.445Zm5.2.068V13.1h.833v1.275a20.414,20.414,0,0,1-.2,3.077Zm2.091,7.174a.212.212,0,0,1-.2-.085.544.544,0,0,1-.034-.255V19.594l.1-.408h1.683V17.452h-1.36a22.536,22.536,0,0,0,.187-3.077V13.1h.935V11.4H10.727v1.7h.527v4.352h-.646v1.734h2.414A10.837,10.837,0,0,1,11.1,22.875a25.809,25.809,0,0,0-1.224-3.213l-1.547.527c.221.527.442,1.122.646,1.717l-1.394.408V19h2.771V11.434H5.95v7.378c-.391-.493-1.292-1.547-1.615-1.887V15.837H5.61V14H4.335V10.6H2.5V14H.7v1.836H2.414a20.587,20.587,0,0,1-2.091,5.95,10.71,10.71,0,0,1,.918,1.751A14.479,14.479,0,0,0,2.5,20.614v5.848H4.335V19.271a16.325,16.325,0,0,1,.782,1.462l.833-1.445v3.519c-.391.1-.748.2-1.054.289l.782,1.836C6.8,24.507,8.143,24,9.452,23.487c.085.289.136.544.187.765l.255-.1a11.428,11.428,0,0,1-1.377,1.088,6.7,6.7,0,0,1,1.258,1.241,12.323,12.323,0,0,0,3.264-3.332v1.258c0,.969.068,1.241.323,1.513a1.345,1.345,0,0,0,1.037.391h.8a1.349,1.349,0,0,0,.833-.255,1.276,1.276,0,0,0,.493-.8,11.326,11.326,0,0,0,.187-2.108,4.778,4.778,0,0,1-1.224-.7c0,.782-.017,1.445-.051,1.734a.662.662,0,0,1-.119.357c-.034.068-.119.085-.221.085Zm10-3.23h4.148a5.481,5.481,0,0,1-1.547,1.581c-1.037-.272-2.108-.527-3.162-.748Zm-2.856-5.882H23.8v1.581H22.015ZM25.7,12.947h1.921v.969H25.7Zm5.865,2.567v1.581h-2.04V15.514ZM25.7,17.095V15.514h1.921v1.581Zm8.84,4.3V19.764H25.959c.238-.374.459-.731.68-1.088h6.953v-4.76H29.529v-.969h4.607V11.2H19.329v1.751H23.8v.969H20.111v4.76h4.216c-.221.357-.442.714-.68,1.088H19.023V21.4h3.536c-.51.731-1,1.394-1.428,1.938l1.955.612.187-.255c.561.119,1.105.255,1.649.391a26.842,26.842,0,0,1-5.593.68,5.727,5.727,0,0,1,.765,1.734,21.641,21.641,0,0,0,7.718-1.632c1.921.561,3.638,1.156,4.93,1.683L33.983,24.9c-1.156-.408-2.635-.867-4.284-1.326A7.477,7.477,0,0,0,31.28,21.4Zm6.341,4.777L42.7,24.609A30.592,30.592,0,0,0,39,20.886l-1.768,1.53A33.313,33.313,0,0,1,40.885,26.173ZM62.033,13.355a10.212,10.212,0,0,1,.646,2.108H59.432l.884-.255a9.655,9.655,0,0,0-.952-1.938c1.445-.068,2.924-.17,4.352-.306Zm-4.216,3.859H68.782v1.938h1.972V15.463H68.34c.391-.629.833-1.326,1.224-2.04l-2.159-.51a19.283,19.283,0,0,1-1.1,2.55H63.342l1.258-.306a8.907,8.907,0,0,0-.765-2.193c2.261-.2,4.454-.476,6.29-.816l-1.36-1.632a95.165,95.165,0,0,1-12.682,1.156,6.4,6.4,0,0,1,.459,1.717c.816-.017,1.683-.051,2.533-.1l-1.513.425a10.6,10.6,0,0,1,.8,1.751H55.93v3.689h1.887Zm7.837,3.162a8.417,8.417,0,0,1-2.312,1.972,9.892,9.892,0,0,1-2.584-1.972Zm1.683-1.938-.374.085H58.378v1.853h.8l-.561.238A11.438,11.438,0,0,0,61.3,23.283a23.739,23.739,0,0,1-5.78,1.241,6.961,6.961,0,0,1,1.19,1.785,22.283,22.283,0,0,0,6.613-1.819,20.508,20.508,0,0,0,6.494,1.785,9.775,9.775,0,0,1,1.241-1.887,23.175,23.175,0,0,1-5.627-1.156A9.988,9.988,0,0,0,68.7,19.271Zm14.4,1.955V18.8h1.683v1.02c0,.187,0,.391-.017.578Zm5.3-1.6v1.6H85.221c.017-.17.017-.357.017-.527V18.8Zm-4.692-4.3a10.863,10.863,0,0,0,1.972-2.142,11.508,11.508,0,0,0,2.057,2.142Zm6.511,7.446V17.248H85.238V16.16h2.244v-.833a13.707,13.707,0,0,0,1.343.782,11.465,11.465,0,0,1,1.037-1.768,10.757,10.757,0,0,1-4.675-3.723H83.351A10.535,10.535,0,0,1,79.407,14.2v-.119H77.86V10.6H75.99v3.485H73.916v1.87h1.955a16.789,16.789,0,0,1-2.346,5.712,9.984,9.984,0,0,1,.918,1.8,13.6,13.6,0,0,0,1.547-3.264v6.256h1.87V19.237c.357.714.7,1.445.884,1.938l1.02-1.564c-.255-.425-1.445-2.244-1.9-2.839v-.816h1.547V15.14a7.6,7.6,0,0,1,.493.986,10.775,10.775,0,0,0,1.394-.833v.867h2.125v1.088H79.985V21.94H83.1c-.476,1.207-1.615,2.312-4.216,3.128a7.743,7.743,0,0,1,1.071,1.5A7.261,7.261,0,0,0,84.524,23.2a7.193,7.193,0,0,0,4.063,3.349,4.807,4.807,0,0,1,1.156-1.683A5.923,5.923,0,0,1,85.85,21.94Zm6.171-.476v-1.1h2.839v1.1Zm2.839-3.655v1.054H95.03V17.809Zm1.955-1.7H93.109V26.377H95.03V22.943h2.839v1.513c0,.2-.068.272-.272.272-.221.017-.9.017-1.53-.017a6.991,6.991,0,0,1,.646,1.717,5.331,5.331,0,0,0,2.363-.323c.578-.289.748-.765.748-1.632Zm4.845,8.109c0,.238-.085.306-.357.306-.289.017-1.173.017-2.04-.017a7.088,7.088,0,0,1,.731,1.9,6.671,6.671,0,0,0,2.788-.34c.68-.323.867-.816.867-1.819V15.8h-1.989Zm-1.53-7.939h-1.853v6.936h1.853Zm.969-3.162c.425-.6.884-1.258,1.292-1.921l-2.193-.646a19.059,19.059,0,0,1-1.394,2.567H97.087l.935-.323a9.393,9.393,0,0,0-1.581-2.21l-1.921.663a11.4,11.4,0,0,1,1.275,1.87H92.174v1.819h15.385V13.117Zm21.3,5.9a6.474,6.474,0,0,0-6.868-6.63,7.553,7.553,0,0,0-7.8,7.276c0,2.873,1.564,4.947,3.451,4.947,1.853,0,3.315-2.108,4.335-5.542a34.38,34.38,0,0,0,1.02-4.607,4.2,4.2,0,0,1,3.57,4.488,4.613,4.613,0,0,1-3.876,4.556,13.075,13.075,0,0,1-1.581.272l1.275,2.023C123.216,25.136,125.409,22.6,125.409,19.016Zm-12.5.425a5.351,5.351,0,0,1,4.318-4.93,25.518,25.518,0,0,1-.9,4.114c-.7,2.3-1.36,3.366-2.074,3.366C113.594,21.991,112.914,21.158,112.914,19.441Zm20.468-7.531A12.05,12.05,0,0,0,130.73,10.6l-1.037,1.377a11.2,11.2,0,0,1,2.584,1.462ZM136.1,18.3h1.989v.782H136.1Zm1.989-3.57H136.1V13.95h1.989Zm0,2.176H136.1v-.782h1.989Zm6.086,4.828h-6.8V20.682H143.9v-1.6h-3.893V18.3h2.907V16.908h-2.907v-.782h2.89V14.732h-2.89V13.95H143.5V12.369h-3.145c.289-.425.578-.9.867-1.394l-2.21-.357a14.341,14.341,0,0,1-.731,1.751h-1.649a12.881,12.881,0,0,0,.68-1.258l-1.955-.578a11.661,11.661,0,0,1-3.264,4.148l.051-.068a13.711,13.711,0,0,0-2.652-1.241l-1.037,1.36a13.836,13.836,0,0,1,2.618,1.377l.884-1.224a19.858,19.858,0,0,1,1.5,1.36c.221-.187.459-.408.68-.629v5.066h1.19v1.054h-6.579v1.819h6.579v2.924h2.057V23.555h6.8Zm-11.849-5.644a36.531,36.531,0,0,1-3.434,3.451l1.411,1.513c1.071-1.156,2.142-2.414,3.111-3.621Zm19.261-4.148v1.734h2.4v1.139h1.87V13.678h2.516v1.139h1.9V13.678h2.278V11.944h-2.278V10.7h-1.9v1.241h-2.516V10.7h-1.87v1.241Zm7.327,10.591V21.6h1.615v.935Zm-3.128,0V21.6h1.53v.935Zm1.53-3.213v.969h-1.53v-.969Zm3.213,0v.969h-1.615v-.969Zm1.717-1.462H154.1v8.585h1.683V23.861h1.53v2.55h1.6v-2.55h1.615v.884c0,.17-.034.2-.187.2-.17.017-.6.017-1.071,0a5.062,5.062,0,0,1,.442,1.53,3.94,3.94,0,0,0,1.955-.272c.476-.272.578-.68.578-1.445Zm.391-2.584H151.674v3.706c0,1.87-.1,4.437-1.292,6.256V14.477a33.045,33.045,0,0,0,1.292-3.3l-1.87-.561a18.942,18.942,0,0,1-3.366,6.562,14.063,14.063,0,0,1,.969,2.176,13.562,13.562,0,0,0,1.054-1.394v8.5h1.921V25.306a8.225,8.225,0,0,1,1.428,1.224c1.445-2.057,1.7-5.3,1.7-7.514V17.01h9.129Zm2.482,2.074,1,2.159c.731-.323,1.8-.9,3.026-1.513.153.34.306.7.459,1.054a52.687,52.687,0,0,1,2.278,7.072l2.329-.612c-.561-1.9-1.87-5.542-2.669-7.4-.153-.34-.306-.7-.476-1.054a13.941,13.941,0,0,1,5-1.53c1.275,0,2.04.7,2.04,1.564a1.952,1.952,0,0,1-2.21,1.921,6.422,6.422,0,0,1-2.363-.578l-.051,2.142a8.365,8.365,0,0,0,2.618.476c2.6,0,4.233-1.513,4.233-3.893,0-1.972-1.581-3.57-4.216-3.57a8.675,8.675,0,0,0-2.448.408l1.343-.986a26.282,26.282,0,0,0-2.465-2.176l-1.564,1.088a27.8,27.8,0,0,1,2.346,2.176c-.986.323-2.023.748-3.06,1.207-.272-.578-.544-1.122-.8-1.615-.187-.323-.527-1.02-.68-1.326l-2.21.85a14.37,14.37,0,0,1,1,1.5c.255.442.51.935.748,1.445-.51.221-1.037.442-1.53.646A14.158,14.158,0,0,1,165.121,17.35Zm24.837-4a10.212,10.212,0,0,1,.646,2.108h-3.247l.884-.255a9.655,9.655,0,0,0-.952-1.938c1.445-.068,2.924-.17,4.352-.306Zm-4.216,3.859h10.965v1.938h1.972V15.463h-2.414c.391-.629.833-1.326,1.224-2.04l-2.159-.51a19.285,19.285,0,0,1-1.1,2.55h-2.958l1.258-.306a8.906,8.906,0,0,0-.765-2.193c2.261-.2,4.454-.476,6.29-.816l-1.36-1.632a95.165,95.165,0,0,1-12.682,1.156,6.4,6.4,0,0,1,.459,1.717c.816-.017,1.683-.051,2.533-.1l-1.513.425a10.6,10.6,0,0,1,.8,1.751h-2.431v3.689h1.887Zm7.837,3.162a8.417,8.417,0,0,1-2.312,1.972,9.892,9.892,0,0,1-2.584-1.972Zm1.683-1.938-.374.085H186.3v1.853h.8l-.561.238a11.438,11.438,0,0,0,2.686,2.669,23.739,23.739,0,0,1-5.78,1.241,6.961,6.961,0,0,1,1.19,1.785,22.283,22.283,0,0,0,6.613-1.819,20.508,20.508,0,0,0,6.494,1.785,9.774,9.774,0,0,1,1.241-1.887,23.175,23.175,0,0,1-5.627-1.156,9.988,9.988,0,0,0,3.264-3.961Zm14.4,1.955V18.8h1.683v1.02c0,.187,0,.391-.017.578Zm5.3-1.6v1.6h-1.819c.017-.17.017-.357.017-.527V18.8Zm-4.692-4.3a10.863,10.863,0,0,0,1.972-2.142,11.507,11.507,0,0,0,2.057,2.142Zm6.511,7.446V17.248h-3.621V16.16h2.244v-.833a13.707,13.707,0,0,0,1.343.782,11.465,11.465,0,0,1,1.037-1.768,10.757,10.757,0,0,1-4.675-3.723h-1.836a10.535,10.535,0,0,1-3.944,3.587v-.119h-1.547V10.6h-1.87v3.485h-2.074v1.87H203.8a16.79,16.79,0,0,1-2.346,5.712,9.984,9.984,0,0,1,.918,1.8,13.6,13.6,0,0,0,1.547-3.264v6.256h1.87V19.237c.357.714.7,1.445.884,1.938l1.02-1.564c-.255-.425-1.445-2.244-1.9-2.839v-.816h1.547V15.14a7.6,7.6,0,0,1,.493.986,10.775,10.775,0,0,0,1.394-.833v.867h2.125v1.088H207.91V21.94h3.111c-.476,1.207-1.615,2.312-4.216,3.128a7.743,7.743,0,0,1,1.071,1.5,7.261,7.261,0,0,0,4.573-3.366,7.193,7.193,0,0,0,4.063,3.349,4.807,4.807,0,0,1,1.156-1.683,5.923,5.923,0,0,1-3.893-2.924Zm15.572-10.829a24.353,24.353,0,0,1-1.853,4.25l1.768.612a38.309,38.309,0,0,0,2.346-4.2Zm-7.276,3.978a15.6,15.6,0,0,0-2.091-3.825l-1.853.731a16.034,16.034,0,0,1,1.989,3.91Zm3.842-4.5H226.7v5.882h-5.151v2.023h10.625v1.564H222.122v1.955h10.047v1.768H221.153v2.006h11.016v.7h2.159V16.466h-5.406ZM242.3,23.13V19.322h7.548V23.13Zm7.548-9.469v3.655H242.3V13.661Zm-9.639-2.04V26.275H242.3v-1.1h7.548v1.071h2.176V11.621Zm23.256,1.5v2.176a45.627,45.627,0,0,0,7.31,0V13.1A34.957,34.957,0,0,1,263.466,13.117Zm1.36,7.259-1.955-.187a10.387,10.387,0,0,0-.289,2.21c0,1.751,1.411,2.788,4.335,2.788a24.075,24.075,0,0,0,4.386-.323l-.034-2.3a20.1,20.1,0,0,1-4.267.442c-1.734,0-2.38-.459-2.38-1.207A5.769,5.769,0,0,1,264.826,20.376Zm-3.978-8.4-2.38-.2c-.017.544-.119,1.19-.17,1.666a47.4,47.4,0,0,0-.714,6.732,21.732,21.732,0,0,0,.663,5.559l1.972-.136c-.017-.238-.034-.51-.034-.7a5.127,5.127,0,0,1,.085-.8c.187-.9.748-2.754,1.224-4.165L260.44,19.1c-.238.561-.51,1.156-.765,1.734a8.2,8.2,0,0,1-.068-1.1,45.088,45.088,0,0,1,.816-6.239C260.491,13.185,260.712,12.335,260.848,11.978Zm14.2,3.706.969,2.38c1.768-.765,5.8-2.465,8.3-2.465,2.04,0,3.145,1.224,3.145,2.822,0,2.958-3.6,4.284-8.211,4.4l.986,2.261c5.984-.306,9.656-2.771,9.656-6.63,0-3.145-2.414-4.913-5.491-4.913-2.482,0-5.95,1.224-7.259,1.632C276.522,15.344,275.672,15.582,275.043,15.684Zm21.777-2.839-2.618-.034a10.334,10.334,0,0,1,.136,1.734c0,1.037.017,3.026.187,4.59.476,4.556,2.091,6.239,3.961,6.239,1.36,0,2.431-1.037,3.553-4l-1.7-2.074c-.323,1.36-1,3.349-1.8,3.349-1.071,0-1.581-1.683-1.819-4.131-.1-1.224-.119-2.5-.1-3.6A13.751,13.751,0,0,1,296.82,12.845Zm8.5.391-2.159.7c1.853,2.108,2.754,6.239,3.026,8.976l2.227-.867C308.227,19.441,306.935,15.191,305.32,13.236Zm6.052.068.221,2.329c1.972-.425,5.44-.8,7.038-.969a6.846,6.846,0,0,0-2.516,5.253c0,3.672,3.366,5.593,6.919,5.831l.8-2.329c-2.873-.153-5.491-1.173-5.491-3.961a5.171,5.171,0,0,1,3.587-4.777,19.237,19.237,0,0,1,3.281-.221l-.017-2.176c-1.19.034-3.06.153-4.811.289-3.111.272-5.916.527-7.327.646C312.715,13.253,312.052,13.287,311.372,13.3ZM333.2,20.019l-2.244-.2a12.423,12.423,0,0,0-.323,2.448c0,2.346,1.955,3.655,5.848,3.655a26.069,26.069,0,0,0,5.9-.595l-.017-2.38a24.216,24.216,0,0,1-5.967.663c-2.448,0-3.485-.765-3.485-1.87A6.371,6.371,0,0,1,333.2,20.019Zm8.568-8.959-1.343.544a12.544,12.544,0,0,1,.731,1.207c-1.309.119-3.145.221-4.76.221a39.885,39.885,0,0,1-4.624-.221v2.261c1.377.1,2.856.187,4.641.187,1.615,0,3.723-.119,4.913-.2v-1.9c.153.289.306.578.425.833l1.377-.6A25.1,25.1,0,0,0,341.768,11.06Zm2.023-.765-1.36.544a18.025,18.025,0,0,1,1.377,2.346l1.36-.578A24.275,24.275,0,0,0,343.791,10.3Zm9.18.833h-4.794v1.53h4.794Zm.612,2.346h-6.307v1.6h6.307Zm-.612,2.431h-4.9v1.513h4.9Zm-4.9,3.893h4.9v-1.53h-4.9Zm12.444-1.9H356.1V15.412h4.42ZM351.373,24.2h-1.649V22.263h1.649Zm9.418.357c-.238,0-.255-.068-.255-.561V19.611h2.057V13.678h-1.479c.357-.7.816-1.632,1.224-2.584l-2.091-.51a17.943,17.943,0,0,1-1,2.822l.935.272h-3.587l.867-.306a10.9,10.9,0,0,0-1.309-2.7l-1.768.578a14.584,14.584,0,0,1,1.105,2.431h-1.309v5.933h1.547c-.17,2.142-.527,4.046-2.635,5.236V20.665h-5.066v5.8h1.7V25.8h3.366v-.748a5.538,5.538,0,0,1,1.173,1.5c2.669-1.564,3.264-4.063,3.468-6.936h.884v4.4c0,1.734.34,2.329,1.836,2.329h1.105c1.241,0,1.7-.714,1.853-3.434a5.532,5.532,0,0,1-1.7-.765c-.034,2.108-.1,2.414-.374,2.414Zm9.469-11.2v2.4h-2.193v-2.4Zm-2.193,6.715V17.554h2.193V20.07Zm4.063,1.836V11.519H366.2V23.368h1.87V21.906Zm3.077-2.584a18.771,18.771,0,0,0,.085-1.921v-.255h3.655v2.176Zm3.74-6.171v2.176h-3.655V13.151Zm2.006-1.87H373.3V17.4c0,2.584-.255,5.746-3.111,7.854A7.583,7.583,0,0,1,371.7,26.6a8.689,8.689,0,0,0,3.247-5.457h3.995v2.992c0,.289-.1.391-.408.391-.289.017-1.326.034-2.244-.017a6.944,6.944,0,0,1,.714,1.955,7.605,7.605,0,0,0,3.06-.374c.663-.323.884-.867.884-1.938Zm8.619.238-2.737-.034a10.844,10.844,0,0,1,.221,2.3c0,1.462-.17,5.933-.17,8.211,0,2.907,1.8,4.131,4.59,4.131a8.8,8.8,0,0,0,7.378-3.91l-1.547-1.87a6.8,6.8,0,0,1-5.814,3.468,2.055,2.055,0,0,1-2.346-2.278c0-2.108.136-5.916.2-7.752C389.385,13.1,389.47,12.233,389.572,11.519Zm16.8,11.56c0-.578.663-1.054,1.87-1.054a9.441,9.441,0,0,1,1.394.119c.017.306.017.544.017.731,0,.986-.6,1.241-1.5,1.241C406.98,24.116,406.368,23.725,406.368,23.079Zm5.321-11.832h-2.295a6.835,6.835,0,0,1,.1,1.173v.8h-.663a31.739,31.739,0,0,1-4.2-.374l.051,1.938a39.08,39.08,0,0,0,4.165.306h.629c-.017.578-.017,1.19-.017,1.751h-.816a30.039,30.039,0,0,1-4.1-.323l.017,2.006c1.122.136,3.06.221,4.046.221h.884c.017.51.034,1.054.068,1.581-.34-.034-.7-.051-1.054-.051-2.618,0-4.2,1.207-4.2,2.924,0,1.8,1.428,2.839,4.148,2.839,2.244,0,3.349-1.122,3.349-2.567,0-.187,0-.391-.017-.629a13.031,13.031,0,0,1,3.434,2.363l1.224-1.9a13.309,13.309,0,0,0-4.76-2.567c-.051-.68-.085-1.377-.119-2.023,1.632-.051,2.958-.17,4.488-.34l.017-2.006c-1.377.187-2.822.323-4.539.408V15.021c1.649-.085,3.2-.238,4.318-.374l.017-1.955a35.629,35.629,0,0,1-4.3.459c0-.272,0-.527.017-.7A11.483,11.483,0,0,1,411.689,11.247Zm19.227.051h-2.465a12.329,12.329,0,0,1,.17,1.479c.017.136.017.306.034.527-2.312.034-5.406.1-7.344.1l.051,2.057c2.091-.119,4.743-.221,7.31-.255.017.374.017.765.017,1.139a4.411,4.411,0,0,0-.68-.051,3.206,3.206,0,0,0-3.4,3.179,3,3,0,0,0,2.924,3.128,3.635,3.635,0,0,0,.765-.085,7.639,7.639,0,0,1-4.148,1.938l1.819,1.8c4.148-1.156,5.44-3.978,5.44-6.188a4.326,4.326,0,0,0-.612-2.329c0-.748-.017-1.683-.017-2.55,2.312,0,3.893.034,4.913.085l.017-2.006c-.884-.017-3.213.017-4.93.017.017-.2.017-.391.017-.527C430.814,12.488,430.882,11.57,430.916,11.3Zm-4.267,8.143a1.28,1.28,0,0,1,1.309-1.36,1.253,1.253,0,0,1,1.1.595c.238,1.5-.391,2.04-1.1,2.04A1.269,1.269,0,0,1,426.649,19.441Zm13.022,1.343a2.754,2.754,0,1,0,2.754,2.754A2.761,2.761,0,0,0,439.671,20.784Zm0,4.284a1.53,1.53,0,1,1,1.53-1.53A1.531,1.531,0,0,1,439.671,25.068Z" transform="translate(-5055.146 3525.521)" fill="#1c1c1c"/>
    </g>
  </g>
</svg>
